<svg width="237" height="53" fill="none" xmlns="http://www.w3.org/2000/svg"><path fill-rule="evenodd" clip-rule="evenodd" d="M31.8 23.452h4.41v6.244H31.8v-6.244zm24.808 0h6.83l2.33 6.244H61.36l-.353-1.363h-1.969l-.353 1.363h-4.409l2.332-6.244zm4.187 4.06l-.772-2.98-.772 2.98h1.544zM47.823 41.936h18.09v-9.994H17.351v9.994h18.09v-3.527h12.382v3.527zm0-30.121h18.09v9.993H17.351v-9.993h18.09v3.527h12.382v-3.527zm-13.818 5.207c1.105 0 2.006.917 2.006 2.042 0 1.124-.9 2.04-2.006 2.04-1.105 0-2.006-.916-2.006-2.04 0-1.125.901-2.042 2.006-2.042l.078.002v1.042h.038l.057-.002.056-.002.056-.002.056-.003.056-.004.054-.006.055-.005.054-.006.053-.006.053-.007.052-.007.052-.008.051-.01.05-.009.05-.009.05-.01.049-.01.047-.012.048-.013.046-.013.046-.013.045-.013.044-.013.044-.015.043-.015.042-.015.04-.015.041-.017.04-.017.014-.007c.038.047.073.095.106.145l-.034.015-.04.019-.043.019-.043.016-.044.017-.045.017-.045.017-.047.015-.047.015-.048.015-.05.013-.05.013-.05.013-.051.013-.053.011-.052.011-.054.012-.054.009-.055.01-.055.007-.056.007-.056.008-.057.007-.058.006-.058.006-.06.003-.058.004-.06.004-.06.002-.06.001-.045.001v.732h1.927a2.313 2.313 0 0 1 0 .16h-1.927v.73l.044.002.06.001.061.002.06.004.059.004.059.003.058.006.057.006.058.005.056.008.056.007.055.01.055.009.054.01.054.009.052.01.053.012.05.013.051.013.05.013.05.013.048.015.047.015.047.015.045.017.045.017.044.017.043.017.042.018.041.019.034.015a2.06 2.06 0 0 1-.106.145l-.014-.007-.04-.017-.04-.015-.041-.015-.042-.015-.043-.015-.044-.015-.044-.013-.045-.013-.046-.013-.046-.013-.047-.011-.048-.012-.05-.01-.048-.01-.05-.01-.051-.009-.051-.01-.052-.007-.052-.007-.053-.008-.053-.007-.054-.006-.055-.005-.055-.006-.055-.004-.056-.003-.056-.002-.056-.002-.057-.002h-.038v1.042a2.048 2.048 0 0 1-.156 0v-1.042h-.037l-.057.002-.056.002-.056.002-.056.003-.056.004-.055.006-.054.005-.054.006-.053.007-.053.008-.053.007-.051.008-.052.01-.05.008-.05.01-.05.01-.048.01-.048.012-.047.01-.047.014-.046.013-.044.013-.045.013-.044.015-.042.015-.042.015-.041.015-.04.015-.04.017-.016.007a2.123 2.123 0 0 1-.105-.145l.033-.015.041-.019.043-.018.043-.017.043-.017.045-.017.046-.017.047-.015.047-.015.049-.015.049-.013.05-.013.05-.013.051-.013.052-.011.053-.011.053-.01.055-.009.054-.01.056-.009.056-.007.056-.008.057-.005.058-.006.058-.005.059-.004.059-.004.06-.004.06-.002.06-.001.044-.001v-.732H32a1.922 1.922 0 0 1 0-.159h1.926v-.732h-.044l-.06-.002-.06-.002-.06-.004-.06-.004-.058-.003-.058-.006-.058-.006-.057-.007-.056-.008-.056-.007-.056-.008-.054-.009-.055-.01-.053-.01-.053-.012-.052-.011-.05-.013-.052-.013-.05-.013-.048-.013-.049-.015-.047-.015-.047-.015-.046-.017-.045-.017-.043-.017-.044-.016-.042-.02-.04-.018-.034-.015c.033-.05.068-.098.105-.145l.017.007.039.017.04.017.04.015.043.015.042.015.044.015.044.013.045.013.046.013.047.013.047.013.048.011.049.012.05.009.05.01.05.009.05.01.053.007.052.007.053.008.053.005.054.006.054.005.055.006.055.004.056.003.057.002.056.002.057.002h.037v-1.042a1.86 1.86 0 0 1 .078-.002z" fill="#fff"/><path fill-rule="evenodd" clip-rule="evenodd" d="M41.148 0C63.81 0 82.295 11.905 82.295 26.5S63.811 53 41.148 53C18.484 53 0 41.095 0 26.5S18.484 0 41.148 0zm0 2.345c22.353 0 40.584 10.851 40.584 24.156 0 13.303-18.231 24.154-40.584 24.154C18.794 50.655.563 39.804.563 26.501c0-13.305 18.232-24.156 40.585-24.156z" fill="#fff"/><path fill-rule="evenodd" clip-rule="evenodd" d="M17.504 23.688h3.2l4.172 3.226v-3.226h3.229v5.832h-3.229l-4.151-3.202v3.202h-3.22v-5.832z" fill="#fff" stroke="#fff" stroke-width=".283"/><path fill-rule="evenodd" clip-rule="evenodd" d="M73.443.953c.434 0 .859.113 1.273.34.413.227.737.552.968.974.23.422.346.863.346 1.322 0 .454-.114.89-.342 1.308-.227.42-.547.745-.957.976a2.58 2.58 0 0 1-1.288.348 2.58 2.58 0 0 1-1.288-.348 2.427 2.427 0 0 1-.96-.976 2.68 2.68 0 0 1-.342-1.308c0-.459.116-.9.347-1.322.232-.422.555-.747.97-.974.413-.227.839-.34 1.273-.34zm0 .436c-.364 0-.718.096-1.062.285-.344.19-.614.461-.808.813-.195.352-.292.72-.292 1.102 0 .379.096.742.287 1.09.191.348.458.62.801.814.343.194.7.292 1.074.292.373 0 .73-.098 1.074-.292.343-.194.609-.466.799-.814a2.242 2.242 0 0 0-.005-2.192 2.012 2.012 0 0 0-.808-.813 2.18 2.18 0 0 0-1.06-.285zm-1.136 3.654V2.21h.957c.328 0 .565.025.71.078a.74.74 0 0 1 .48.69.762.762 0 0 1-.217.54.858.858 0 0 1-.578.259.745.745 0 0 1 .236.15c.113.112.25.3.412.562l.34.554h-.55l-.246-.446c-.195-.35-.35-.571-.47-.66-.082-.065-.203-.097-.36-.097h-.264v1.203h-.45zm.45-1.594h.545c.26 0 .439-.04.533-.119a.389.389 0 0 0 .143-.314.389.389 0 0 0-.069-.226.41.41 0 0 0-.19-.147c-.081-.034-.231-.049-.452-.049h-.51v.855zM49.213 29.685h-6.83l-2.331-6.245h4.409l.565 2.184h1.544l.566-2.184h4.409l-2.332 6.245zm-4.187-4.06l.772 2.98.773-2.98h-1.545z" fill="#fff"/><path d="M95.255 32.174V18.79h1.74v5.496h6.839V18.79h1.741v13.384h-1.741v-6.309h-6.838v6.309h-1.741zm13.254-13.384h1.58v10.6l7-10.6h1.75v13.384h-1.58V21.602l-7.009 10.572h-1.741V18.79zm13.111 13.384V18.79h4.936c1.005 0 1.81.137 2.414.41.61.268 1.086.685 1.427 1.251.347.56.521 1.148.521 1.762 0 .572-.153 1.111-.458 1.616-.305.505-.766.913-1.382 1.223.796.238 1.406.643 1.831 1.215.43.572.646 1.248.646 2.027a3.96 3.96 0 0 1-.395 1.752c-.257.536-.577.95-.96 1.242-.383.292-.865.514-1.445.666-.574.146-1.28.22-2.118.22h-5.017zm1.741-7.76h2.845c.772 0 1.325-.052 1.66-.156.443-.134.775-.356.997-.666.227-.31.341-.7.341-1.169a2.15 2.15 0 0 0-.315-1.168 1.565 1.565 0 0 0-.897-.694c-.389-.128-1.056-.192-2.001-.192h-2.63v4.044zm0 6.18h3.276c.562 0 .957-.021 1.185-.064.4-.073.735-.195 1.005-.365.269-.17.49-.417.664-.74.173-.328.26-.705.26-1.131 0-.5-.126-.932-.377-1.297a1.957 1.957 0 0 0-1.05-.776c-.443-.152-1.083-.228-1.92-.228h-3.043v4.601zm8.535 1.58l5.052-13.384h1.876l5.384 13.384h-1.983l-1.535-4.054h-5.501l-1.445 4.054h-1.848zm3.796-5.496h4.46l-1.373-3.707c-.419-1.126-.73-2.051-.933-2.775-.168.858-.404 1.71-.709 2.556l-1.445 3.926zm9.073 1.479v-1.653h4.962v1.653h-4.962zm5.617 4.017l5.089-6.975-4.487-6.41h2.073l2.387 3.433c.496.712.849 1.26 1.059 1.644.293-.487.64-.995 1.041-1.525l2.647-3.551h1.894l-4.622 6.308 4.981 7.076h-2.154l-3.312-4.775a23.232 23.232 0 0 1-.574-.895c-.293.487-.503.822-.628 1.004l-3.303 4.666h-2.091zm12.456-6.519c0-2.222.587-3.96 1.759-5.213 1.173-1.26 2.687-1.89 4.541-1.89 1.215 0 2.31.295 3.285.886a5.71 5.71 0 0 1 2.225 2.474c.515 1.053.772 2.249.772 3.588 0 1.357-.269 2.571-.808 3.643-.538 1.07-1.301 1.883-2.288 2.437a6.479 6.479 0 0 1-3.195.822c-1.238 0-2.345-.305-3.32-.913a5.846 5.846 0 0 1-2.217-2.492 7.67 7.67 0 0 1-.754-3.342zm1.795.027c0 1.613.425 2.885 1.275 3.817.855.925 1.926 1.387 3.212 1.387 1.31 0 2.387-.468 3.231-1.406.849-.937 1.274-2.267 1.274-3.99 0-1.089-.182-2.038-.547-2.848-.359-.815-.889-1.445-1.589-1.89a4.207 4.207 0 0 0-2.342-.675c-1.232 0-2.294.432-3.186 1.296-.885.858-1.328 2.295-1.328 4.31zm13.784-6.892h8.239v13.384h-1.741V20.369h-4.757v6.893c0 1.4-.065 2.425-.197 3.076-.126.652-.395 1.16-.808 1.525-.413.36-.936.539-1.57.539-.383 0-.844-.073-1.382-.22l.296-1.57c.287.122.532.183.736.183.395 0 .691-.15.888-.447.198-.305.296-1.017.296-2.137V18.79zm12.295 0h8.005v11.804h1.184v4.702h-1.552v-3.122h-8.696v3.122H188.1v-4.702h1.023c1.059-1.625 1.589-4.909 1.589-9.85V18.79zm6.264 1.579h-4.586v.685c0 1.138-.102 2.696-.305 4.674-.198 1.972-.589 3.594-1.176 4.866h6.067V20.37zm5.025-1.579h1.58v10.6l6.999-10.6h1.75v13.384h-1.579V21.602l-7.009 10.572h-1.741V18.79zm13.237 13.384V18.79h1.741v5.496h6.838V18.79h1.741v13.384h-1.741v-6.309h-6.838v6.309h-1.741zm13.255-13.384H237v1.579h-6.766v11.805h-1.741V18.79z" fill="#fff"/></svg>